<svg xmlns:xlink="http://www.w3.org/1999/xlink" xmlns="http://www.w3.org/2000/svg" viewBox="0 0 1340.43 175.97" class="header-logo" width="1340.43"  height="175.97" ><defs></defs><g id="Layer_2" data-name="Layer 2"><g id="hrz_wht"><polygon points="893.23 97.25 915.72 97.25 904.48 69.81 893.23 97.25" class="cls-1" fill="#FFFFFF"></polygon><path d="M631.53,71.62a25.58,25.58,0,0,0-8.16-5.74,24.82,24.82,0,0,0-10.28-2.12,25.27,25.27,0,0,0-10.33,2.06,23.48,23.48,0,0,0-8,5.68,26.61,26.61,0,0,0-5.2,8.4,27.74,27.74,0,0,0-1.88,10.22v.24a28.17,28.17,0,0,0,1.88,10.28,25.21,25.21,0,0,0,5.32,8.46,25.58,25.58,0,0,0,8.1,5.75A24.65,24.65,0,0,0,613.33,117a25.43,25.43,0,0,0,10.28-2,23.45,23.45,0,0,0,8-5.69,26.56,26.56,0,0,0,5.2-8.4,27.68,27.68,0,0,0,1.87-10.21v-.25a28.15,28.15,0,0,0-1.87-10.27A25.51,25.51,0,0,0,631.53,71.62Z" class="cls-1" fill="#FFFFFF"></path><path d="M722.63,67.88q-3.87-3-10.76-3h-18.5v24.3h18.86q6.9,0,10.58-3.26a11.06,11.06,0,0,0,3.69-8.71v-.24Q726.5,70.9,722.63,67.88Z" class="cls-1" fill="#FFFFFF"></path><polygon points="1196.94 97.25 1219.43 97.25 1208.19 69.81 1196.94 97.25" class="cls-1" fill="#FFFFFF"></polygon><path d="M1298.77,19.4h-998L259.55,87.77l41.66,68.81h998l41.22-68.38ZM376,132.68H357.38V48.05H376Zm96.36,0H456.52l-41-53.8v53.8H397.16V48.05h17.16L454,100.16V48.05h18.38Zm84.75-67.83H511.29V83.11h40.38V99.92H511.29v32.76H492.67V48.05h64.44ZM658.19,90.36a42.87,42.87,0,0,1-3.38,17,43.26,43.26,0,0,1-23.64,23.34,46.74,46.74,0,0,1-18.08,3.44,46.24,46.24,0,0,1-18-3.44,44.86,44.86,0,0,1-14.21-9.31,41.73,41.73,0,0,1-9.31-13.79,43.35,43.35,0,0,1-3.32-17v-.25a42.69,42.69,0,0,1,3.38-17A43.26,43.26,0,0,1,595.26,50a49,49,0,0,1,36.09,0,44.86,44.86,0,0,1,14.21,9.31,41.79,41.79,0,0,1,9.31,13.78,43.58,43.58,0,0,1,3.32,17Zm67.95,42.32L708,105.6H693.37v27.08H674.75V48.05h38.69q15.12,0,23.52,7.37T745.36,76v.24q0,10.27-5,16.74a29,29,0,0,1-13.12,9.49l20.67,30.23Zm120.66,0H828.42V77.43l-23.81,36.15h-.49L780.55,77.79v54.89H762.17V48.05h20.07l22.25,35.78,22.24-35.78H846.8Zm83.31,0-7.74-19H886.58l-7.74,19h-19l36.27-85.24H913.3l36.27,85.24Zm96.6-67.46H1001v67.46H982.34V65.22H956.58V48.05h70.13Zm33.73,67.46h-18.62V48.05h18.62Zm88.75-7.37a40.55,40.55,0,0,1-7.68,4.77,39.47,39.47,0,0,1-9.13,3,54.58,54.58,0,0,1-11.12,1,43.92,43.92,0,0,1-17.29-3.38,42.6,42.6,0,0,1-13.79-9.25,42.17,42.17,0,0,1-9.06-13.85,44.5,44.5,0,0,1-3.27-17v-.25a44.06,44.06,0,0,1,12.33-30.89A42.12,42.12,0,0,1,1104.09,50,45.18,45.18,0,0,1,1122,46.6a56.33,56.33,0,0,1,10.82,1,45.28,45.28,0,0,1,8.89,2.66,38.85,38.85,0,0,1,7.38,4.11,51,51,0,0,1,6.28,5.32l-11.84,13.67a45.09,45.09,0,0,0-10.1-7,25.78,25.78,0,0,0-11.55-2.54,23.46,23.46,0,0,0-17.65,7.74,26.48,26.48,0,0,0-5.08,8.4,28.55,28.55,0,0,0-1.81,10.22v.24a29,29,0,0,0,1.81,10.28,26.7,26.7,0,0,0,5,8.46,23.22,23.22,0,0,0,17.71,7.86,25.82,25.82,0,0,0,12.27-2.66,47.64,47.64,0,0,0,10-7.25L1156,119A62.8,62.8,0,0,1,1149.19,125.31Zm84.63,7.37-7.74-19H1190.3l-7.74,19h-19l36.28-85.24H1217l36.27,85.24Z" class="cls-1" fill="#FFFFFF"></path><g id="ak_logo" data-name="ak logo"><polygon points="165.42 0 165.42 175.97 120.6 175.97 120.6 66.17 120.13 66.17 53.97 175.97 0 175.97 120.83 0 165.42 0" class="cls-1" fill="#FFFFFF"></polygon><polygon points="282.96 175.97 230.41 175.97 177.01 87.75 232.28 0 282.88 0 229.99 87.75 282.96 175.97" class="cls-2" fill="#DC0C15"></polygon></g></g></g></svg>