<?xml version="1.0" encoding="UTF-8"?> <svg xmlns="http://www.w3.org/2000/svg" width="84" height="46" viewBox="0 0 84 46" fill="none"><path d="M55.5635 37.2455L63.4026 9.60595L54.9442 11.5471L47.5564 37.2722C45.4506 44.7609 50.3699 47.2898 55.8555 44.004L57.0853 39.6586C55.1211 40.469 55.0769 38.9018 55.5635 37.2366" fill="#00A1E5"></path><path d="M35.6827 23.6929C33.0107 23.6929 30.8431 25.8745 30.8431 28.5636C30.8431 31.2528 33.0107 33.4344 35.6827 33.4344C38.3548 33.4344 40.5224 31.2528 40.5224 28.5636C40.5224 25.8745 38.3548 23.6929 35.6827 23.6929ZM46.8839 28.5636C46.8839 34.7879 41.8673 39.8367 35.6827 39.8367C29.4982 39.8367 24.4816 34.7879 24.4816 28.5636C24.4816 22.3394 29.4982 17.2905 35.6827 17.2905C41.8673 17.2905 46.8839 22.3394 46.8839 28.5636Z" fill="#00A1E5"></path><path d="M72.7988 23.6929C70.1268 23.6929 67.9591 25.8745 67.9591 28.5636C67.9591 31.2528 70.1268 33.4344 72.7988 33.4344C75.4708 33.4344 77.6385 31.2528 77.6385 28.5636C77.6385 25.8745 75.4708 23.6929 72.7988 23.6929ZM84 28.5636C84 34.7879 78.9834 39.8367 72.7988 39.8367C66.6143 39.8367 61.5976 34.7879 61.5976 28.5636C61.5976 22.3394 66.6143 17.2905 72.7988 17.2905C78.9834 17.2905 84 22.3394 84 28.5636Z" fill="#00A1E5"></path><path d="M7.25511 27.9047C11.5462 27.6643 15.9878 26.5601 15.9878 23.7463C15.9878 22.4462 15.2977 21.7517 14.3421 21.7517C11.3074 21.7517 8.22835 24.1559 7.25511 27.9047ZM18.9695 32.909L21.0841 37.6908C17.9608 39.3648 14.0944 40.4244 10.6526 40.4244C3.31788 40.4244 0 36.4263 0 30.7185C0 23.212 6.40573 16.6939 14.4217 16.6939C18.7129 16.6939 22.6855 18.5728 22.6855 22.7312C22.6855 30.2288 14.581 32.357 7.21087 32.722C7.61786 34.2714 8.71498 35.3756 11.4666 35.3756C13.537 35.3756 17.5892 33.6926 18.9695 32.9179" fill="#00A1E5"></path><path d="M30.7192 11.9122C30.1176 11.9122 29.5248 11.6807 29.0647 11.2266C25.1451 7.28188 19.9427 5.11808 14.4041 5.11808C13.0592 5.11808 11.7055 5.25165 10.396 5.50988C9.13082 5.75921 7.90099 4.93109 7.65326 3.65774C7.40552 2.3844 8.22836 1.14667 9.49358 0.897347C11.1039 0.585689 12.7495 0.416504 14.4041 0.416504C21.1902 0.416504 27.5694 3.07895 32.3737 7.90519C33.285 8.82235 33.285 10.3094 32.3737 11.2266C31.9136 11.6807 31.3208 11.9122 30.7192 11.9122Z" fill="#00A1E5"></path><path d="M25.5698 17.0145C24.977 17.0145 24.3754 16.783 23.9153 16.3288C21.3672 13.7644 17.9785 12.3485 14.3686 12.3485C13.4485 12.3485 12.5372 12.4376 11.6436 12.6246C10.3783 12.8828 9.14851 12.0636 8.88308 10.7902C8.62649 9.5169 9.44048 8.27918 10.7057 8.01204C11.9001 7.76272 13.13 7.63805 14.3686 7.63805C19.226 7.63805 23.7826 9.54362 27.2155 12.9986C28.1268 13.9157 28.1268 15.4028 27.2155 16.3199C26.7554 16.7741 26.1626 17.0056 25.561 17.0056" fill="#00A1E5"></path></svg> 