<svg xmlns:xlink="http://www.w3.org/1999/xlink" style="width: 5rem" xmlns="http://www.w3.org/2000/svg" viewBox="0 0 535.49 346.87" width="535.49"  height="346.87" ><defs><style>.cls-1{fill:#fff;}.cls-2{fill:#dc0c15;}</style></defs><g id="Layer_2" data-name="Layer 2"><g id="vrt_wht"><path class="cls-1" d="M205.74,289.89a9,9,0,0,0-2.89-2,9.4,9.4,0,0,0-7.31,0,8.24,8.24,0,0,0-2.83,2,9.41,9.41,0,0,0-1.85,3,9.92,9.92,0,0,0-.66,3.63v.08a10.06,10.06,0,0,0,.66,3.65,9.1,9.1,0,0,0,4.76,5,8.76,8.76,0,0,0,3.67.75,9.1,9.1,0,0,0,3.64-.73,8.25,8.25,0,0,0,2.85-2,9.3,9.3,0,0,0,1.85-3,9.86,9.86,0,0,0,.66-3.62v-.09a10,10,0,0,0-.66-3.64A8.89,8.89,0,0,0,205.74,289.89Z" fill="#FFFFFF"></path><path class="cls-1" d="M234.24,287.48h-6.56v8.62h6.69a5.48,5.48,0,0,0,3.75-1.15,3.92,3.92,0,0,0,1.31-3.09v-.09a3.8,3.8,0,0,0-1.38-3.21A6,6,0,0,0,234.24,287.48Z" fill="#FFFFFF"></path><polygon class="cls-1" points="298.56 298.98 306.54 298.98 302.55 289.24 298.56 298.98" fill="#FFFFFF"></polygon><polygon class="cls-1" points="406.28 298.98 414.26 298.98 410.27 289.24 406.28 298.98" fill="#FFFFFF"></polygon><path class="cls-1" d="M535.48,232l-73.25-85.83H418.44l11.5,14.23h25.72l60.21,71.7h0l-48.09,57.27h-9.69L423.4,246.17c-43.07,0-43.11-.08-43.14-.12H154.37s-.07.08-43.36.12L76.34,289.34H67.7L19.61,232.07h0l60.2-71.7h25.73L117,146.14H73.26L0,232H0l61.14,71.6c5.34,0,10.67,0,15.11,0L111,346.74c43.35,0,43.38.08,43.42.13H380.26s.07-.08,43.25-.12l34.67-43.16h16.17L535.49,232ZM115.11,311.54h-6.6v-30h6.6Zm34.18,0h-5.62l-14.54-19.08v19.08h-6.52v-30h6.09L142.77,300V281.52h6.52Zm30.06-24.06H163.1V294h14.32v6H163.1v11.62h-6.61v-30h22.86Zm35.85,9a15.17,15.17,0,0,1-1.2,6,15.55,15.55,0,0,1-3.33,4.93,15.39,15.39,0,0,1-5.06,3.34,17.27,17.27,0,0,1-12.8,0,15.85,15.85,0,0,1-5-3.3,14.77,14.77,0,0,1-3.3-4.89,15.5,15.5,0,0,1-1.18-6v-.09a15.15,15.15,0,0,1,1.2-6,15.43,15.43,0,0,1,8.39-8.28,17.4,17.4,0,0,1,12.8,0,16.19,16.19,0,0,1,5,3.3,15,15,0,0,1,3.3,4.89,15.55,15.55,0,0,1,1.18,6Zm24.1,15-6.43-9.6h-5.19v9.6h-6.61v-30h13.72c3.58,0,6.36.88,8.35,2.62a9.2,9.2,0,0,1,3,7.29v.09a9.46,9.46,0,0,1-1.78,5.94,10.35,10.35,0,0,1-4.66,3.36L247,311.54Zm42.79,0h-6.51v-19.6l-8.45,12.83H267l-8.37-12.7v19.47h-6.51v-30h7.11l7.9,12.7,7.89-12.7h7.11Zm29.55,0-2.74-6.73H296.2l-2.74,6.73h-6.73l12.86-30.23h6.09l12.86,30.23Zm34.26-23.93h-9.13v23.93h-6.6V287.61H321v-6.09H345.9Zm12,23.93h-6.61v-30h6.61Zm31.47-2.61a14.45,14.45,0,0,1-2.72,1.69,14,14,0,0,1-3.24,1.07,19.62,19.62,0,0,1-3.94.37,15.52,15.52,0,0,1-6.13-1.2,15.12,15.12,0,0,1-4.89-3.28,14.9,14.9,0,0,1-3.22-4.91,15.9,15.9,0,0,1-1.16-6.05v-.09a15.67,15.67,0,0,1,1.16-6,15.3,15.3,0,0,1,3.22-4.93,14.85,14.85,0,0,1,4.93-3.35A16.12,16.12,0,0,1,379.7,281a19.63,19.63,0,0,1,3.83.34,16.28,16.28,0,0,1,3.16.95,13.76,13.76,0,0,1,2.61,1.45,17.67,17.67,0,0,1,2.23,1.89l-4.2,4.85a15.88,15.88,0,0,0-3.58-2.49,9.15,9.15,0,0,0-4.1-.9,8.35,8.35,0,0,0-6.26,2.74,9.46,9.46,0,0,0-1.8,3,10.12,10.12,0,0,0-.64,3.63v.08a10.27,10.27,0,0,0,.64,3.65,9.58,9.58,0,0,0,1.78,3,8.26,8.26,0,0,0,6.28,2.79,9.21,9.21,0,0,0,4.36-1,16.51,16.51,0,0,0,3.53-2.57l4.21,4.25A22.66,22.66,0,0,1,389.34,308.93Zm30,2.61-2.74-6.73h-12.7l-2.74,6.73h-6.73l12.86-30.23h6.09l12.87,30.23Z" fill="#FFFFFF"></path><polygon class="cls-1" points="296.07 0 296.07 225.5 238.64 225.5 238.64 84.79 238.04 84.79 153.25 225.5 84.1 225.5 238.94 0 296.07 0" fill="#FFFFFF"></polygon><polygon class="cls-2" points="446.7 225.5 379.35 225.5 310.92 112.45 381.76 0 446.6 0 378.81 112.45 446.7 225.5" fill="#DC0C15"></polygon></g></g></svg>